<svg xmlns="http://www.w3.org/2000/svg" width="137" height="32" viewBox="0 0 137 32" fill="none">
<path d="M55.7306 11.1436C55.1772 10.6239 54.519 10.2286 53.8002 9.98429C53.0334 9.72475 52.2285 9.59594 51.419 9.60323C50.1273 9.60323 49.0503 9.90557 48.2167 10.4977C47.7083 10.8563 47.2467 11.277 46.8427 11.7501V2.96594H44.2307V24.5398H46.8427V17.1261C46.8319 16.3948 46.9531 15.6675 47.2005 14.9793C47.412 14.3933 47.7311 13.8521 48.1415 13.3834C48.5244 12.9577 48.9942 12.6191 49.5191 12.3905C50.4829 11.9789 51.563 11.9294 52.5604 12.251C53.0026 12.3837 53.4112 12.6097 53.7587 12.9137C54.1062 13.2177 54.3845 13.5926 54.5749 14.0132C54.8012 14.536 54.9099 15.1021 54.8933 15.6716V24.5344H57.5053V15.677C57.5183 14.7789 57.3542 13.887 57.0222 13.0525C56.731 12.3323 56.2908 11.6818 55.7306 11.1436Z" fill="#F8F8F6"/>
<path d="M72.4784 21.2101L67.648 9.93927H64.7999L71.2404 24.7166L71.04 25.205C70.8021 25.8097 70.557 26.3804 70.3101 26.8992C70.0924 27.3686 69.8363 27.8192 69.5444 28.2464C69.3196 28.5806 69.0395 28.874 68.7161 29.114C68.452 29.3053 68.1333 29.4064 67.8073 29.4021C67.526 29.3893 67.2478 29.3375 66.9807 29.2482C66.5465 29.1009 66.1334 28.8976 65.7517 28.6435L65.4726 28.4646L64.4564 30.0873L64.6514 30.2662C65.122 30.7104 65.6562 31.0818 66.2365 31.3682C66.8559 31.6795 67.5398 31.8407 68.2331 31.8387C68.958 31.8582 69.6711 31.6526 70.2743 31.2501C70.8397 30.8558 71.3253 30.358 71.7056 29.7831C72.1127 29.1705 72.4544 28.517 72.7253 27.8331C73.0008 27.1407 73.2745 26.4305 73.5357 25.7221L79.5612 9.93927H76.7345L72.4784 21.2101Z" fill="#F8F8F6"/>
<path d="M96.573 21.5753C96.0839 21.8393 95.5682 22.0504 95.0344 22.2051C94.5339 22.3512 94.0154 22.4265 93.4941 22.4287C92.6711 22.4287 92.0807 22.2212 91.7408 21.8097C91.4009 21.3982 91.2041 20.781 91.2041 20.0207V12.3815H97.0864V9.93771H91.2041V5.05725H88.5903V9.93771H85.7279V12.3815H88.5903V19.9706C88.5903 21.5574 88.9982 22.7847 89.7997 23.6148C90.6012 24.4449 91.7426 24.8671 93.1881 24.8671C93.9471 24.8655 94.7011 24.7447 95.4226 24.5093C96.2187 24.2389 96.9533 23.8132 97.5838 23.257L97.7895 23.0781L96.8574 21.4161L96.573 21.5753Z" fill="#F8F8F6"/>
<path d="M114.587 21.5753C114.098 21.8396 113.582 22.0507 113.049 22.2051C112.549 22.3512 112.031 22.4265 111.51 22.4287C110.687 22.4287 110.097 22.2212 109.755 21.8097C109.413 21.3982 109.218 20.781 109.218 20.0207V12.3815H115.102V9.93771H109.22V5.05725H106.608V9.93771H103.746V12.3815H106.608V19.9706C106.608 21.5592 107.014 22.7847 107.816 23.6148C108.617 24.4449 109.76 24.8671 111.204 24.8671C111.963 24.8655 112.717 24.7447 113.439 24.5093C114.235 24.2389 114.97 23.8133 115.601 23.257L115.807 23.0781L114.875 21.4161L114.587 21.5753Z" fill="#F8F8F6"/>
<path d="M136.283 13.9491C135.938 13.0532 135.414 12.2369 134.744 11.55C134.095 10.9025 133.312 10.4054 132.451 10.0937C131.556 9.77086 130.611 9.60855 129.66 9.61424C128.636 9.60537 127.62 9.80186 126.674 10.1921C125.771 10.5631 124.952 11.1101 124.263 11.8012C123.575 12.4923 123.031 13.3137 122.663 14.2174C122.27 15.1778 122.072 16.2068 122.08 17.2444C122.074 18.2768 122.264 19.3008 122.64 20.2625C122.994 21.1711 123.532 21.9969 124.219 22.6884C124.917 23.3813 125.745 23.9286 126.656 24.2986C127.648 24.6957 128.709 24.8939 129.778 24.8818C130.961 24.9 132.139 24.7117 133.257 24.3254C134.205 23.9866 135.103 23.5233 135.928 22.9479L136.186 22.7689L135.064 21.0086L134.791 21.1696C134.056 21.6004 133.267 21.9313 132.445 22.1535C131.675 22.3702 130.879 22.4839 130.078 22.4917C128.586 22.4917 127.355 22.0766 126.418 21.2608C125.576 20.5302 125.008 19.5345 124.808 18.4377H136.723L136.785 18.189C136.827 18.0259 136.849 17.8583 136.852 17.6899V17.2409C136.87 16.1176 136.677 15.0009 136.283 13.9491ZM124.806 16.0547C124.9 15.5531 125.065 15.0675 125.296 14.6128C125.825 13.5572 126.734 12.7414 127.84 12.33C128.421 12.1099 129.038 11.9989 129.66 12.0026C130.262 11.9985 130.861 12.1046 131.425 12.3157C131.953 12.5125 132.439 12.8075 132.857 13.1851C133.272 13.5726 133.606 14.0391 133.839 14.5573C134.052 15.0317 134.188 15.5373 134.241 16.0547H124.806Z" fill="#F8F8F6"/>
<path d="M9.54602 3.98945e-05L9.01819 2.50696L27.6188 6.42332L28.1466 3.91641L9.54602 3.98945e-05Z" fill="#F8F8F6"/>
<path d="M3.79989 3.79736L0 21.8447L2.50692 22.3726L6.30681 4.32519L3.79989 3.79736Z" fill="#F8F8F6"/>
<path d="M29.3807 9.18328L25.5808 27.2307L28.0877 27.7585L31.8876 9.71112L29.3807 9.18328Z" fill="#F8F8F6"/>
<path d="M4.15369 25.5767L3.62585 28.0836L22.2264 32L22.7543 29.4931L4.15369 25.5767Z" fill="#F8F8F6"/>
</svg>